# xmcd CD database file
#
# Track frame offsets:
#	150
#	16225
#	26726
#	42672
#	60821
#	75219
#	101861
#	119125
#	139303
#	156888
#	175230
#	194583
#	215053
#	236295
#	256396
#
# Disc length: 3658 seconds
#
# Revision: 1
# Processed by: cddbd v1.5.2PL0 Copyright (c) Steve Scherf et al.
# Submitted via: CDex 1.51
#
DISCID=d20e480f
DTITLE=Various Artist - SFH-02
DYEAR=1900
DGENRE=Blues
TTITLE0=Michael Jackson - Black Or White
TTITLE1=Queen - We Will Rock You
TTITLE2=Sister Sledge - We Are Family
TTITLE3=Shanice - I Love Your Smile
TTITLE4=Billy Idol - Dancing With Myself
TTITLE5=Spandau Ballet - True
TTITLE6=Eric Clapton - Cocaine
TTITLE7=Roxette - It Must Have Been Love
TTITLE8=Wet Wet Wet - Goodnight Girl
TTITLE9=Guns 'N' Roses - Sweet Child Of Mine
TTITLE10=Natalie Cole - Wild Women Do
TTITLE11=Pointer Sisters The - Jump
TTITLE12=R.E.M. - Losing My Religion
TTITLE13=David Bowie - China Girl
TTITLE14=Amy Grant - Baby Baby
EXTD=
EXTT0=
EXTT1=
EXTT2=
EXTT3=
EXTT4=
EXTT5=
EXTT6=
EXTT7=
EXTT8=
EXTT9=
EXTT10=
EXTT11=
EXTT12=
EXTT13=
EXTT14=
PLAYORDER=
